Carioca Club, Sao Paulo
11th November 2010


Eternal Dark Rock Bootlegs
probably made from good to very good youtube clips
with nice menu

I don´t have a cover for it and won´t provide samples
if you were at the show or are a big Raven fan, this dvd is for you !!
fingerprints included

SEEDING WILL BE VERY SLOW, I CAN´T SEED IN FULL SPEED AND 24/7
PLEASE BE PATIENT

I will post the setlist later, I think this is the complete show


Video
ID                               : 224 (0xE0)
Format                           : MPEG Video
Format version                   : Version 2
Format profile                   : Main@Main
Format settings, BVOP            : Yes
Format settings, Matrix          : Default
Format settings, GOP             : M=3, N=15
Duration                         : 3mn 52s
Bit rate mode                    : Variable
Bit rate                         : 5 629 Kbps
Maximum bit rate                 : 9 000 Kbps
Width                            : 720 pixels
Height                           : 480 pixels
Display aspect ratio             : 16:9
Frame rate                       : 29.970 fps
Standard                         : NTSC
Color space                      : YUV
Chroma subsampling               : 4:2:0
Bit depth                        : 8 bits
Scan type                        : Progressive
Compression mode                 : Lossy
Bits/(Pixel*Frame)               : 0.544
Stream size                      : 156 MiB (91%)

Audio
ID                               : 189 (0xBD)-128 (0x80)
Format                           : AC-3
Format/Info                      : Audio Coding 3
Mode extension                   : CM (complete main)
Muxing mode                      : DVD-Video
Duration                         : 3mn 52s
Bit rate mode                    : Constant
Bit rate                         : 448 Kbps
Channel(s)                       : 6 channels
Channel positions                : Front: L C R, Side: L R, LFE
Sampling rate                    : 48.0 KHz
Bit depth                        : 16 bits
Compression mode                 : Lossy
Stream size                      : 12.4 MiB (7%)

Text #1
ID                               : 189 (0xBD)-32 (0x20)
Format                           : RLE
Format/Info                      : Run-length encoding
Muxing mode                      : DVD-Video

Text #2
ID                               : 189 (0xBD)-33 (0x21)
Format                           : RLE
Format/Info                      : Run-length encoding
Muxing mode                      : DVD-Video

Text #3
ID                               : 189 (0xBD)-34 (0x22)
Format                           : RLE
Format/Info                      : Run-length encoding
Muxing mode                      : DVD-Video